<svg height="93.419189pt" viewBox="0 0 342.3044 93.419189" width="342.30438pt" xmlns="http://www.w3.org/2000/svg"><g fill="#337021"><path d="m63.71851 44.42578c9.86719-6.19922 15.42188-13.32031 15.48047-13.39453 5.60547-6.71485 3.83985-11.79297 3.76172-12.00391-2.09765-7.35937-10.98047-9.35547-11.35937-9.4375l-9.01563-2.11719c-9.94922-2.36718-16-7.17187-16.05859-7.21875l-.28516-.23046-.28515.23046c-.0586.0469-6.10938 4.85157-16.0586 7.21875l-9.02344 2.11719c-.37109.082-9.25 2.07813-11.35937 9.46875-.0703.17969-1.83594 5.25781 3.78125 11.98828.043.0625 5.65625 7.2461 15.61328 13.47266v-1.07813c-9.50781-6.05468-14.84766-12.89453-14.90234-12.96484-3.25-3.89062-3.87891-7.20312-3.87891-9.17969 0-1.22656.24219-1.9414.25-1.96093 1.96875-6.88672 10.60938-8.83985 10.69531-8.85547l9.03516-2.125c8.95312-2.12891 14.82031-6.20313 16.13281-7.17969 1.3125.97656 7.1836 5.05078 16.13281 7.17969l9.03125 2.12109c.0937.0195 8.73047 1.97266 10.69141 8.83203.0117.0274.25781.75391.25781 1.9961 0 1.98437-.63281 5.28515-3.86328 9.16015-.0664.082-5.35547 6.85156-14.77344 12.88672z"/><path d="m45.86305.57422c-.22657.34375-5.54297 8.59765-6.33594 27.42578l.90625.0391c.66015-15.67969 4.57812-24.03516 5.80859-26.30078 1.23047 2.26562 5.14844 10.62109 5.8086 26.30078l.91015-.0391c-.79297-18.82813-6.11328-27.08203-6.33984-27.42578l-.37891-.57422z"/><path d="m46.24195 17.46484-1.57422-1.57812v-5.14844h3.14844v5.14844z"/><path d="m45.93726 25.34765h.60938v-8.84765h-.60938zm0 0"/><path d="m28.90992 63.76172c-11.95703 5.66406-19.84375 6.32422-22.19922 6.38672 1.34375-2.19922 6.35938-9.875 22.19922-19.72266v-1.0625c-18.53125 11.32422-23.21484 20.67187-23.39844 21.03906l-.30859.61328.6875.043c.37891.0195 8.69922.42969 23.01953-6.28906v-1.00781"/><path d="m20.32789 62.28906-.57422 2.15234-4.46094 2.57032-1.57422-2.72657 4.45704-2.57421z"/><path d="m28.90992 56.98437-9.56641 5.51563.30079.53125 9.26562-5.35156z"/><path d="m50.80445 72.78906c-1.91015 12.74219-6.50781 16.81641-6.55078 16.85156-3.30078 3.22657-6.96484 2.85547-7.00391 2.85157l-.0273-.004h-.0273c-5.33594.0703-10.44532-5.40625-10.4961-5.45703l-4.09765-4.25c-9.39844-9.53516-14.80078-11.89453-16.29688-12.40235.0977-.50781.22266-1.47656.22266-3.01171 0-3.14454-.53906-8.62891-3.00391-17.27344l-1.6875-5.65235c-.0156-.0508-.91406-2.88281-.91406-6.125 0-1.92187.31641-3.98828 1.3125-5.70312l.0195-.0273.008-.0234c.0156-.0352 1.49219-3.41016 5.89453-4.6875.082-.0274 6.89454-2.08203 20.75391 3.75781v-.98437c-13.97656-5.8125-20.73437-3.73829-21.02344-3.64454-4.74609 1.37891-6.34765 4.9336-6.45312 5.1875-1.08985 1.89063-1.4336 4.10938-1.4336 6.15235 0 3.32422.90625 6.17969.96875 6.36719l1.67969 5.64062c2.44141 8.55078 2.95703 13.98438 2.95703 17.03906 0 2.17969-.26172 3.14844-.26953 3.17188l-.13281.45703.46484.11328c.0547.0117 5.57032 1.41797 16.28516 12.28125l4.08594 4.23828c.21093.23047 5.41015 5.80469 11.14453 5.74219.33594.0391 4.16797.35547 7.68359-3.08203.17969-.14844 4.90625-4.28516 6.85938-17.52344h-.92188"/><path d="m63.71851 63.74219c11.95704 5.66406 19.84375 6.32812 22.20313 6.38671-1.34766-2.19921-6.36328-9.875-22.20313-19.72265v-1.0625c18.53125 11.32812 23.21485 20.66797 23.39844 21.03906l.3086.61719-.6836.0391c-.38281.0234-8.70312.42969-23.02344-6.28906v-1.00781"/><path d="m72.30055 62.26562.57812 2.15235 4.46094 2.57812 1.57422-2.73828-4.46094-2.57031z"/><path d="m63.71851 56.96094 9.56641 5.52343-.30469.52344-9.26172-5.34766z"/><path d="m41.82008 72.76562c1.91406 12.7461 6.51172 16.81641 6.55859 16.85547 3.29688 3.22656 6.96094 2.85547 7 2.84766l.0273-.004h.0312c5.33204.0742 10.44141-5.40234 10.49219-5.45703l4.09766-4.24609c9.39844-9.53125 14.80469-11.89063 16.29687-12.40235-.0937-.50781-.22265-1.47656-.22265-3.01172 0-3.14062.53906-8.63281 3.00781-17.26953l1.68359-5.65625c.0156-.0508.91407-2.88281.91407-6.1289 0-1.92188-.31641-3.98438-1.31641-5.69922l-.0156-.0274-.008-.0273c-.0156-.0312-1.49219-3.40625-5.89453-4.68359-.082-.0273-6.89453-2.08594-20.75391 3.75781v-.98828c13.97657-5.8086 20.73438-3.73438 21.02344-3.63672 4.7461 1.375 6.34766 4.92969 6.45703 5.18359 1.08594 1.89063 1.42969 4.10547 1.42969 6.14844 0 3.32813-.90625 6.18359-.96875 6.37109l-1.67578 5.63672c-2.44531 8.55078-2.96094 13.98828-2.96094 17.03907 0 2.18359.26563 3.15234.26953 3.17578l.13282.46093-.46485.10938c-.0547.008-5.57031 1.41797-16.28515 12.28125l-4.08594 4.23828c-.21094.23047-5.41016 5.80469-11.14453 5.74609-.33203.0312-4.16797.35157-7.67969-3.08593-.17969-.15235-4.91016-4.28516-6.85938-17.52735h.91407"/><path d="m11.92945 27.5039s7.48438 1.44532 16.98047 6.32422v.83203s-12.63672-6.11328-16.98047-7.15625"/><path d="m11.92945 27.5039 16.98047 9.38672v1.03907s-15.23437-8.94141-16.98047-10.42579"/><path d="m11.92945 27.5039s1.82422 3.00391 16.98047 12.8125v.98438s-12.73828-8.08594-16.98047-13.79688"/><path d="m80.69898 27.5039s-7.47656 1.44532-16.98047 6.32422v.83203s12.63672-6.11328 16.98047-7.15625"/><path d="m80.69898 27.5039-16.98047 9.38672v1.03907s15.23829-8.94141 16.98047-10.42579"/><path d="m80.69898 27.5039s-1.82031 3.00391-16.98047 12.8125v.98438s12.74219-8.08594 16.98047-13.79688"/><path d="m46.24195 87.01953s-1.84375-4.67578-2.76172-14.23047h.78907s.23437 5.33594 1.97265 14.23047"/><path d="m46.59742 72.78906-.35547 14.23047-.35547-14.23047z"/><path d="m46.24195 87.01953s1.56641-4.98047 2.22266-14.23047h.69922s-1.33985 11.53906-2.92188 14.23047"/><path d="m33.14039 36.17187c0 .65625-.53125 1.19141-1.1875 1.19141-.66016 0-1.19141-.53516-1.19141-1.19141v-5.375c0-.66015.53125-1.1875 1.19141-1.1875h12.58594c.33203 0 .59765-.26953.59765-.59765v-.85157c0-.65625.53125-1.1875 1.19141-1.1875.65625 0 1.1875.53125 1.1875 1.1875v.85157c0 .32812.26562.59765.59375.59765h12.58984c.65625 0 1.19141.52735 1.19141 1.1875v5.375c0 .65625-.53516 1.19141-1.19141 1.19141s-1.1875-.53516-1.1875-1.19141v-3.58984c0-.32813-.26562-.59766-.59765-.59766h-4.5586c-.32812 0-.59375.26953-.59375.59766v3.58984c0 .65625-.53515 1.19141-1.1875 1.19141-.66015 0-1.1914-.53516-1.1914-1.19141v-3.58984c0-.32813-.26563-.59766-.59375-.59766h-8.92578c-.32422 0-.59375.26953-.59375.59766v3.58984c0 .65625-.53125 1.19141-1.1875 1.19141-.66016 0-1.19141-.53516-1.19141-1.19141v-3.58984c0-.32813-.26563-.59766-.59375-.59766h-4.55859c-.32813 0-.59766.26953-.59766.59766z"/><path d="m30.76148 66.29297c0 .65625.53125 1.1875 1.19141 1.1875.65625 0 1.1875-.53125 1.1875-1.1875v-11.38672c0-.33203.26953-.59766.59766-.59766h25.17578c.33203 0 .59765.26563.59765.59766v11.38672c0 .65625.53125 1.1875 1.1875 1.1875s1.19141-.53125 1.19141-1.1875v-13.17578c0-.65625-.53516-1.1875-1.19141-1.1875h-28.74609c-.66016 0-1.19141.53125-1.19141 1.1875z"/><path d="m55.10914 48.39453c-.65625 0-1.19141.53125-1.19141 1.1875 0 .66016.53516 1.19141 1.19141 1.19141h5.58984c.65625 0 1.19141-.53125 1.19141-1.19141v-9.73047c0-.65625-.53516-1.19141-1.19141-1.19141s-1.1875.53516-1.1875 1.19141v.3125c0 .32813-.26562.59375-.59765.59375h-3.80469c-.65625 0-1.19141.53516-1.19141 1.19141s.53516 1.1875 1.19141 1.1875h3.65625c.41016 0 .74609.33593.74609.74609s-.33593.74609-.74609.74609h-3.65625c-.65625 0-1.19141.52735-1.19141 1.1875 0 .65625.53516 1.1875 1.19141 1.1875h3.70703c.38281 0 .69531.3125.69531.69532 0 .38281-.3125.69531-.69531.69531z"/><path d="m30.76148 39.85156c0-.65625.53125-1.19141 1.19141-1.19141.65625 0 1.1875.53516 1.1875 1.19141v.3125c0 .33203.26953.59375.59766.59375h3.69531c.65625 0 1.1875.53516 1.1875 1.19141s-.53125 1.1875-1.1875 1.1875h-3.55078c-.41016 0-.74219.33593-.74219.74609s.33203.74609.74219.74609h3.55078c.65625 0 1.1875.52735 1.1875 1.1875 0 .65625-.53125 1.1875-1.1875 1.1875h-3.59766c-.38281 0-.69531.3125-.69531.69532 0 .38281.3125.69531.69531.69531h3.59766c.65625 0 1.1875.53125 1.1875 1.1875 0 .66016-.53125 1.19141-1.1875 1.19141h-5.48047c-.66016 0-1.19141-.53125-1.19141-1.19532z"/><path d="m50.19117 58.87109c0-.32812-.26562-.59765-.59375-.59765h-6.54297c-.32812 0-.59375.26953-.59375.59765v.89063c0 .32812.26563.59375.59375.59375h6.54297c.32813 0 .59375-.26563.59375-.59375zm7.13672 6.83594c0 .66016-.53125 1.1875-1.19141 1.1875h-8.62109v2.87891c0 .65625-.53125 1.18359-1.1875 1.18359h-3.52734c-.65625 0-1.19141-.52734-1.19141-1.18359s.53516-1.19141 1.19141-1.19141h1.73828c.33203 0 .59765-.26563.59765-.59375v-1.09375h-8.625c-.65625 0-1.1875-.52734-1.1875-1.1875v-8.90234c0-.65625.53125-1.1875 1.1875-1.1875s1.19141.53125 1.19141 1.1875v7.12109c0 .32812.26172.59375.59375.59375h6.83984v-1.1875c0-.33203-.26562-.59766-.59765-.59766h-3.26953c-.65625 0-1.1875-.53125-1.1875-1.1914v-4.45703c0-.66016.53125-1.19141 1.1875-1.19141h10.11328c.65625 0 1.1914.53125 1.1914 1.19141v4.45703c0 .66015-.53515 1.1914-1.1914 1.1914h-3.27344c-.32813 0-.59375.26563-.59375.59766v1.1875h6.83984c.32813 0 .59766-.26563.59766-.59375v-7.12109c0-.65625.52734-1.1875 1.18359-1.1875.66016 0 1.19141.53125 1.19141 1.1875z"/><path d="m44.91773 44.38672s-.20312.11328-.20312.30468c0 .19141.20312.30469.20312.30469l.86719.5s.30859.17969.53516.17969c.22265 0 .53515-.17969.53515-.17969l.86719-.5s.20313-.11328.20313-.30469c0-.1914-.20313-.30468-.20313-.30468l-.86719-.5s-.3125-.17969-.53515-.17969c-.22657 0-.53516.17969-.53516.17969zm-2.36718 6.34375c-.57032.32422-1.29688.1289-1.625-.4375-.32813-.57032-.13282-1.30078.4375-1.625l2.05468-1.1836s.19922-.11328.19922-.30468c0-.19532-.19922-.30469-.19922-.30469l-2.00781-1.15625s-.63672-.38281-.63672-1.02735c0-.64843.63672-1.02734.63672-1.02734l2.00781-1.15625s.19922-.10937.19922-.30078-.19922-.30469-.19922-.30469l-2.16015-1.24609c-.57032-.33203-.76172-1.0586-.4375-1.62891.32812-.5664 1.05468-.76172 1.625-.43359l3.33984 1.92969s.30859.17578.53516.17578c.22265 0 .53515-.17578.53515-.17578l3.23047-1.86719c.57031-.33203 1.29688-.13281 1.625.43359.32813.57031.13281 1.29688-.43359 1.625l-2.05469 1.1875s-.20312.11328-.20312.30469.20312.30078.20312.30078l2.01172 1.15625s.63672.37891.63672 1.02734c0 .64454-.63672 1.02735-.63672 1.02735l-2.01172 1.15625s-.20312.10937-.20312.30469c0 .1914.20312.30468.20312.30468l2.02734 1.16407c.56641.32812.76172 1.05859.4336 1.625-.32813.57031-1.05469.76562-1.625.4375l-3.20313-1.85157s-.3125-.17578-.53515-.17578c-.22657 0-.53516.17578-.53516.17578z"/></g><g fill="#231f20"><path d="m132.39039 65.73828c3.08203 0 4.48828 2.90234 4.48828 5.59766 0 3.25-1.92969 5.70312-4.48828 5.70312-3.02734 0-4.60938-2.78516-4.60938-5.53125 0-3.29297 1.98438-5.76953 4.60938-5.76953zm4.83984 1.19531c-1.16797-1.27734-2.83203-1.95703-4.8164-1.95703-1.83594 0-3.51563.66797-4.72266 1.88672-1.21094 1.19922-1.87109 2.85156-1.87109 4.65234 0 3.1211 2.26562 6.28125 6.59375 6.28125 1.74218 0 3.35937-.64453 4.55078-1.82812 1.20312-1.19531 1.875-2.84375 1.875-4.63672 0-1.69141-.57422-3.25-1.60938-4.39844"/><path d="m208.74588 65.73828c1.3867 0 2.5508.58984 3.3594 1.70703.7265 1.01172 1.1289 2.39453 1.1289 3.89063 0 1.58593-.4649 3.04296-1.3204 4.10156-.8242 1.03125-1.9531 1.60156-3.1679 1.60156-3.0274 0-4.6094-2.78516-4.6094-5.53125 0-3.29297 1.9805-5.76953 4.6094-5.76953zm.023-.76172c-1.8398 0-3.5117.66797-4.7265 1.88672-1.2032 1.19922-1.8633 2.85156-1.8633 4.65234 0 3.1211 2.2656 6.28125 6.5898 6.28125 1.7422 0 3.3633-.64453 4.5508-1.82812 1.2109-1.19531 1.875-2.84375 1.875-4.63672 0-3.05859-2.0117-6.35547-6.4258-6.35547"/><path d="m173.16383 67.96094c.4414 1.02343 1.24218 2.875 1.98825 4.60937h-3.9531c.6211-1.48437 1.33594-3.15625 1.96485-4.60937zm6.67965 9.22656c-.289-.0977-.582-.0859-.7265-.31641l-5.18753-12.39062-1.42578 1.9375.0273.0742c.004 0 .0977.26562.008.47265l-.008.0312c-1.25 2.96485-4.02734 9.71485-4.04687 9.75781-.35156.35547-.78906.4336-1.14453.5-.3711.0664-.75391.0195-.75391.4336v.1289h4.34766v-.1289c0-.40235-.39453-.39453-.71094-.48047-.375-.10547-.60156-.18359-.60156-.45703.004-.1836.48047-1.51953 1.14062-3.12891h4.84384c.7343 1.69531 1.3203 3.17188 1.3203 3.17188l.039.15625-.012.0625c-.059.11718-.3086.18359-.5391.24218-.3437.0937-.7304.082-.7304.4336v.1289h4.8594v-.1289c0-.3711-.3594-.38281-.6993-.5"/><path d="m196.76538 75.88281c-1.1016.98828-2.6836 1.37109-4.7187 1.15625-.9883-.10547-1.0391-.80078-1.0391-2.01953v-7.25c0-1.1875.051-1.92578 1.0391-2.03125 2.0351-.21484 3.6211.17969 4.7187 1.16797 1.0899.98047 1.6641 2.53125 1.6641 4.48828 0 1.96094-.5742 3.50781-1.6641 4.48828zm-3.5469-10.88672h-5.5586v.11719c0 .42187.3047.32031.5235.33203.4179.0195.9883.16406.9883 2.32422v7.25c0 2.16406-.5704 2.19141-.9883 2.21094-.2188.0117-.5235.0234-.5235.44922v.13281h2.8907l1.8281.004c5.5 0 8.293-2.16015 8.293-6.42187 0-4.03516-2.5938-6.39844-7.4532-6.39844"/><path d="m185.82788 65.5c.2188-.043.5078.0234.5078-.38281v-.1211h-4.8633v.1211c0 .40625.2813.33984.5039.38281.4024.0703 1.0079.29687 1.0079 2.48047v6.84375c0 2.17578-.6055 2.29297-1.0079 2.36328-.2226.0352-.5039.0898-.5039.5v.1289h4.8633v-.1289c0-.41016-.289-.46485-.5078-.5-.4023-.0703-1.0039-.1875-1.0039-2.36328v-6.84375c0-2.1836.6016-2.41016 1.0039-2.48047"/><path d="m124.3943 65.47265c.21484-.0234.51171.0547.51171-.35546v-.1211h-4.85937v.1211c0 .41015.29687.33203.51953.35546.39453.0469.99219.23047.99219 2.40235v2.78906h-6.98047v-2.78906c0-2.17188.60156-2.35547.99609-2.40235.21485-.0234.51172.0547.51172-.35546v-.1211h-4.85547v.1211c0 .41015.29688.33203.51172.35546.39844.0469.9961.23047.9961 2.40235v7.04687c0 2.17578-.59766 2.35938-.9961 2.40625-.21484.0273-.51172-.0586-.51172.35938v.1289h4.85547v-.1289c0-.41797-.29687-.33203-.51172-.35938-.39453-.0469-.99609-.23047-.99609-2.40625v-3.20703h6.98047v3.20703c0 2.17578-.59766 2.35938-.99219 2.40625-.22266.0273-.51953-.0586-.51953.35938v.1289h4.85937v-.1289c0-.41797-.29687-.33203-.51171-.35938-.39844-.0469-.9961-.23047-.9961-2.40625v-7.04687c0-2.17188.59766-2.35547.9961-2.40235"/><path d="m151.48414 77.22656c-.25781-.0742-.55469-.16406-.76563-.38672l-2.62109-3.0039c-1.11328-1.25-2.17187-2.4336-2.79687-3.0586l-.0469-.10547c.004-.12109.14453-.27343.19531-.32031 0 0 5.41016-4.75 5.69922-4.83203.35938-.10156.96094.0977.96094-.40234v-.1211h-4.55469v.1211c0 .53125 1.47656.22265 1.47656.71093 0 .19532-5.47656 4.73047-5.47656 4.73047-.17969.14453-.33594.19922-.43359.17578-.0937-.0273-.13672-.14453-.15235-.1875h-.004v-2.76953c0-2.16797.57422-2.30859.98828-2.32812.22266-.0117.52344.0898.52344-.33203v-.1211h-4.85938v.1211c0 .42187.30469.32031.52344.33203.41797.0195.99219.16015.99219 2.32812v7.2461c0 2.16796-.57422 2.30859-.99219 2.33203-.21875.008-.52344-.0937-.52344.33203v.1289h4.85938v-.1289c0-.42578-.30078-.32422-.52344-.33203-.41406-.0234-.98828-.16407-.98828-2.33203v-2.40625c0-.008.008-.20704.21484-.38672l.28516-.23438c.10937-.0664.28125-.1289.42187.0117 1.25782 1.28516 3.96485 4.375 4.44141 4.92578.13672.14844.12109.19922.12109.19922 0 .21875-.27734.12109-.41406.14844-.32812.0742-.73437-.0273-.73437.40625v.1289h4.85546v-.1289c0-.38281-.33984-.36719-.67187-.46094"/><path d="m165.07008 77.22656c-.26172-.0742-.5586-.16406-.76953-.38672l-2.61719-3.0039c-1.11328-1.25-2.17578-2.4336-2.80078-3.0586l-.043-.10547c0-.12109.14062-.27343.19531-.32031 0 0 5.40625-4.75 5.69922-4.83203.35547-.10156.95703.0977.95703-.40234v-.1211h-4.55469v.1211c0 .53125 1.47657.22265 1.47657.71093 0 .19532-5.47266 4.73047-5.47266 4.73047-.18359.14453-.33984.19922-.4375.17578-.0898-.0273-.13672-.14453-.15234-.1875v-2.76953c0-2.16797.57421-2.30859.98437-2.32812.22266-.0117.52734.0898.52734-.33203v-.1211h-4.85937v.1211c0 .42187.30469.32031.52344.33203.41406.0195.98828.16015.98828 2.32812v7.2461c0 2.16796-.57422 2.30859-.98828 2.33203-.21875.008-.52344-.0937-.52344.33203v.1289h4.85937v-.1289c0-.42578-.30468-.32422-.52734-.33203-.41016-.0234-.98437-.16407-.98437-2.33203v-2.40625c0-.008.004-.20704.21484-.38672l.28516-.23438c.10546-.0664.28125-.1289.41796.0117 1.26172 1.28516 3.96485 4.375 4.44532 4.92578.13281.14844.11718.19922.11718.19922 0 .21875-.27734.12109-.41406.14844-.32422.0742-.73047-.0273-.73047.40625v.1289h4.85547v-.1289c0-.38281-.33984-.36719-.67187-.46094"/><path d="m303.41778 70.72265-1.668-.92968c-.6289-.35547-1.6953-1.10547-1.6953-2.17578 0-.58594.2265-1.94141 2.3398-1.94141 1.1445 0 1.8125.35156 2.1367 1.14062.3594.88282.9024.72657.9024.72657l-.3516-2.28907-.062-.0312c-.031-.0156-.7812-.39062-2.3125-.39062-2.6211 0-4.3789 1.34375-4.3789 3.33984 0 1.61719 1.2578 2.70313 2.3125 3.32032l1.9805 1.15625c1.4414.83984 1.6367 1.6914 1.6367 2.5 0 1-.7617 2.00781-2.4648 2.00781-1.9493 0-2.9766-1.17969-3.2149-1.89844-.375-1.125-.8281-.86328-.8281-.86328l.4062 2.86328.055.0391c.3399.19141 1.6016.70313 3.3086.70313 2.7344 0 4.5703-1.4375 4.5703-3.57813 0-1.49609-.8789-2.69922-2.6718-3.69922"/><path d="m230.50758 65v.1289c0 .41797.3437.33985.6445.37891.5782.082 1.3711.30859 1.3711 2.48438v4.9375c0 3.98437-3.6797 4.03125-3.8242 4.03125-.1523 0-3.5586-.0469-3.5586-4.03125v-4.9375c0-2.17969.7109-2.40235 1.2227-2.48438.2695-.0391.5937.0391.5937-.37891v-.1289h-5.1601v.1289c0 .41016.2851.33985.5039.37891.3984.0742 1.0039.30469 1.0039 2.48438v4.9375c0 4.83984 5.3359 4.89453 5.3945 4.89453.047 0 4.8477-.0547 4.8477-4.89453v-4.9375c0-2.17969.6211-2.40625 1.0781-2.48438.2383-.0391.5312.0312.5312-.37891v-.1289z"/><path d="m255.79668 65.48437c.2187-.0273.5195.0625.5195-.35547v-.1289h-4.8516v.1289c0 .41797.2891.32813.5078.35547.3946.0469.9961.23438.9961 2.40625v7.04297c0 2.17188-.6015 2.36328-.9961 2.40625-.2187.0234-.5078-.0664-.5078.35156v.13282h4.8516v-.13282c0-.41796-.3008-.32812-.5195-.35156-.3907-.043-.9922-.23437-.9922-2.40625v-7.04297c0-2.17187.6015-2.35937.9922-2.40625"/><path d="m313.22628 65.48437c.2188-.0273.5157.0625.5157-.35547v-.1289h-4.8477v.1289c0 .41797.2891.32813.5078.35547.3985.0469.9922.23438.9922 2.40625v7.04297c0 2.17188-.5937 2.36328-.9922 2.40625-.2187.0234-.5078-.0664-.5078.35156v.13282h4.8477v-.13282c0-.41796-.2969-.32812-.5157-.35156-.3945-.043-.9921-.23437-.9921-2.40625v-7.04297c0-2.17187.5976-2.35937.9921-2.40625"/><path d="m267.69508 65v.1289c0 .41016.4258.39063.8086.47657.4375.10547.6992.1875.6992.45312-.01.37891-2.043 4.98828-3.6641 8.45703l-3.6367-8.60156c-.039-.0937-.051-.16016-.023-.20312.047-.10547.3086-.15625.5195-.19141.336-.0703.75-.0234.75-.39063v-.1289h-4.8594v.1289c0 .65625 1.1329.1875 1.4258.82032l5.4063 12.01953.1601-.39844c.5196-1.17578 5.0391-11.46875 5.0586-11.51953.1719-.38281.6407-.42188.8789-.48828.2657-.0703.5118-.0156.5118-.4336v-.1289h-4.0352"/><path d="m337.78488 65v.1289c0 .40625.3946.38672.7422.47657.3946.10156.6719.1289.6367.45312-.047.31641-2.0507 3.5625-2.9101 4.89063 0 0-.1758.28125-.2969.47265-.207-.35937-3.0547-5.51953-3.0547-5.51953l-.031-.13672.01-.0547c.055-.10547.3125-.15625.5273-.19141.3321-.0703.7461-.0234.7461-.39063v-.1289h-4.8554v.1289c0 .375.3711.35547.6953.4375.289.082.5859.15625.7265.38282l3.793 6.73047s.1172.22265.1172.42187v1.83203c0 2.17188-.5977 2.36328-.9961 2.40625-.2148.0234-.5117-.0664-.5117.35156v.13282h4.8594v-.13282c0-.41796-.3008-.32812-.5196-.35156-.3945-.043-.9961-.23437-.9961-2.40625v-2.09765c0-.29688.1797-.59375.1797-.59766l3.7891-6.19531c.2617-.39063.6367-.41407.8789-.48047.2617-.0703.5156-.0156.5156-.4336v-.1289h-4.043"/><path d="m244.92168 65v.1289c0 .41797.3281.33985.6171.37891.5469.082 1.3047.30859 1.3047 2.48438l-.01 6.08984-7.5703-9.08203h-3.1562v.1289c0 .41797.3359.33985.6211.37891.5507.082 1.2968.30859 1.2968 2.48438v6.73828c0 2.18359-.6289 2.45312-1.082 2.55859-.25.0586-.5273 0-.5273.40234v.13282h4.5507v-.13282c0-.40234-.3242-.34765-.6093-.40234-.5508-.10937-1.3047-.375-1.3047-2.55859v-6.89063l8.5508 10.41016.2617.3789v-.0625.004-.4375-10.14062c0-2.17969.625-2.40625 1.0742-2.48438.2422-.0391.5351.0312.5351-.37891v-.1289h-4.5546"/><path d="m282.83178 74.44531c-.4297 0-.6055.43359-.8086.9375-.3008.74219-.6367 1.57813-1.8203 1.57813h-3.375c-.1992-.0156-.7773-.125-.7773-.75391v-4.28516h1.2812c2.1758 0 2.2891.75 2.3594 1.29688.043.28906.094.61719.5039.61719h.1328v-4.85157h-.1328c-.4102 0-.4609.32813-.5039.61328-.07.55079-.1836 1.29688-2.3594 1.29688h-1.2812v-3.89453c0-.97266.75-1.11719.9804-1.13672h2.9727c1.168 0 1.332.64844 1.4766 1.22266.098.39062.1953.78515.6406.78515h.1289v-2.87109h-9.543v.1289c0 .42188.3008.44141.5195.44922.418.0234.9844.0469.9844 2.21485v7.23828c0 2.16406-.5664 2.1875-.9844 2.21094-.2187.0117-.5195.0273-.5195.44921v.13282h9.7344l.5469-3.37891z"/><path d="m328.00368 64.99609h-11.7422l-.2227 2.875h.1485c.4219 0 .6094-.37109.8008-.75781.3007-.58984.6367-1.25781 1.8203-1.25781h1.9961c.2304.26953.4101.82812.4101 2.01953v7.05469c0 2.17578-.5976 2.36718-1 2.41015-.2109.0234-.5156-.0664-.5156.35156v.13282h4.8672v-.13282c0-.41796-.2969-.32812-.5156-.35156-.3985-.043-.9961-.23437-.9961-2.41015v-7.05469c0-1.19141.1797-1.75.4101-2.01953h1.9883c1.1914 0 1.5274.66797 1.8242 1.25781.1953.38672.3828.75781.8047.75781h.1445z"/><path d="m292.78488 68.37109c0 .42969-.1875 2.59375-3.8086 2.59375h-.9375l-.082-.12109v-4.71485c0-.082.2149-.32031 1.0313-.37109 1.3554-.082 2.375.19141 3.0273.80469.7149.67187.7695 1.55078.7695 1.80859zm2.0586 7.91016c-1.2929-1.58594-3.082-4.61328-3.1054-4.63672-.059-.10156-.055-.14453-.047-.15625l.047-.0391c2.1015-.58985 3.1289-1.59375 3.1289-3.07813 0-1.26172-.7227-3.375-5.543-3.375l-1.6367.004-.1836-.004-2.8945.004v.1289c0 .42188.3007.44141.5195.44922.418.0234.9844.0469.9844 2.21485v7.14062c0 2.17188-.5977 2.48438-.9883 2.53125-.2227.0234-.5156-.1914-.5156.22656v.13282h4.8554v-.13282c0-.41796-.3008-.20312-.5195-.22656-.3945-.0469-.9922-.35937-.9922-2.53125v-3.1289l.016-.0625 1.0704.004c.1367.0117.6796.1211 1.2265.92188l2.4492 3.68359c1.3711 2.0625 4.4375 2.13672 4.5586 2.13672 0 0-1.2343-.73828-2.4336-2.20703"/></g><g fill="#0e0f0e"><path d="m124.1443 26.05469v4.37109h-9.22657c-2.33984 0-3.8789-.57031-3.8789-.57031s.26172 1.83203.95312 2.49609c.69531.66797 3.5625-.0781 4.88281-.0781h7.26954v14.45312c-6.3711 2.82813-13.14454 3.70313-13.14454 3.70313 1.58204 3.6914 4.59766 5.35546 4.59766 5.35546s.35156-.8164 1.28516-1.51171c3.01172-2.23829 5.6875-4.91407 7.26172-6.59766v8.14844 2.52734c2.5 0 4.79296-.77344 4.79296-2.85156 0 0 0-2.28125 0-3.71485v-32.16015c0-1.25.50391-2.4375.50391-2.4375s-1.82031-1.97266-5.59766-2.04297c0 0 .30079 1.59375.30079 10.91016zm28.85156 24.58984c-.57031-.57422-.6836-1.4375-.6836-2.07031v-4.52735l-.0352-.0703-.0469.0703-.11718.73438v.004c-.44532 2.46875-1.77735 7.36329-5.39844 7.36329-1.35547 0-3.83203 0-3.83203 0-2.29688 0-3.73828-1.14844-3.73828-3.96094 0-.96875 0-7.11719 0-13.47656 1.53906-.48438 7.21484-2.33204 11.00781-4.47657.95703-.53906 2.71484-.99609 2.71484-.99609s-1.3125-3.45703-5.13281-4.81641c-3.28516 5.58203-7.32422 9.07813-8.58984 10.09766 0-7.42188 0-15.06641 0-15.06641 0-1.25.57421-2.43359.57421-2.43359s-1.29296-1.74219-5.39453-1.875c0 0 .14844 1.54297.14844 9.80859v23.21094c0 6.02734 1.63281 8.61719 7.32031 8.61719h8.0625c4.91016 0 5.27735-4 3.14063-6.13672"/><path d="m247.46068 53.14453s-13.539 1.38672-23.2969.50781c-6.1406-.55469-7.8437-3.66015-8.2617-5.89062v-10.29688c0-1.92187.836-2.73437.836-2.73437s-.7149-2.69141-4.6446-3.5586c-.4922 1.97266-1.4804 2.16797-1.5547 2.20313h-2.0859c-2.418 0-4.0156-.57813-4.0156-.57813s.3984 1.83203 1.0898 2.5c.6914.66407 2.8867-.082 4.2071-.082h1.9375v16.07422c-.1602.082-.3243.16406-.4922.23828-3.0742 1.41016-6.4649 2.20703-6.4649 2.20703 1.8321 3.38282 5.0625 4.44532 5.1524 4.51953.3789-1.64453 1.3008-2.30078 2.7968-4.23046.668-.8711 1.3946-2.16407 1.9961-3.32813.918 3.01563 2.961 6.32813 7.5079 6.97656 8.6562 1.23047 22.6718.5 22.6718.5s-.6328-2.64843 2.6211-5.02734zm-9.2773-23.45703v4.75h-13.5196v-4.7461zm0 11.34765h-13.5196v-4.75h13.5196zm0 6.59375h-13.5196v-4.75l13.5196-.004zm-16.8438-23.73046h7.4219c-.02.24609-.039.49609-.066.75781-.1797 1.59375-.5703 2.65234-.8047 3.18359h-4.2422v.0391c-.7539-.57421-1.9726-1.1875-3.8398-1.30078 0 0 .3945 2.23438.3945 5.20703v19.70313c2.7149 0 4.2539-.28125 4.4258-2.01563l13.5547-.004v2.01953c2.8867 0 4.4609-.29688 4.4609-2.33594v-17.22265c0-1.92188.9063-2.51563.9063-2.51563s-1.1524-2.03125-3.875-3.22266c-.5664 1.14844-1.6602 1.64844-1.6602 1.64844h-9.3281c1.2461-.5625 3.4414-1.77344 5.2851-3.9414h5.0469c4.5117 0 7.2578.0703 7.2578.0703s.7149-.52735.7149-1.17188c0 0-1.2344-1.95312-4.1524-3.39843-.9922 1.95703-2.582 2.61328-2.6328 2.65625h-4.6953c1.0742-.53516 2.2383-1.23438 3.293-2.12891.832-.71484 1.6289-1.01953 1.6289-1.01953s-.6758-2.80078-4.6719-3.8711c0 0-.3203 2.22266-1.457 4.62891-.4571.95703-.9453 1.76172-1.3672 2.39063h-4.457c.3085-.58985.4453-1.375.2773-2.33204-.7031-4.02734-8.3906-4.51562-8.3906-4.51562s3.0039 1.03516 3.7539 5.32031c.1094.625.3086 1.125.5547 1.52735h-4.6172c-2.3516 0-4.2188-.57032-4.2188-.57032s.5977 1.83203 1.293 2.5c.6914.66407 2.8867-.0859 4.207-.0859zm-11.3554-.74219c1.3984 4.61719 5.8515 3.30078 4.6484-.92188-1.2148-4.27343-8.8008-4.60547-8.8008-4.60547s3.1055 2.0625 4.1524 5.52735"/><path d="m294.53098 54.23828s-14.9804-6.3125-18.9687-22.90625h10.4023c4.5157 0 7.2578.0703 7.2578.0703s.7227-.48828.7227-1.35547c0 0-1.332-2.08203-5.0625-3.68359-.8555 2.11328-2.582 3.07812-2.6328 3.125h-12.0781c.4062-2.84375.6367-5.95703.6367-9.38672.062-.89062.4687-2.57422.4687-2.57422s-2.0273-1.57422-6.7773-1.63281c0 0 1.2539 5.89844.4492 13.59375h-12.9687c-2.3008 0-3.8829-.57031-3.8829-.57031s.2657 1.83203.9571 2.49609 2.8906-.082 4.207-.082h11.457c-1.3047 9.03516-5.6054 19.97266-17.8047 26.82812 0 0 18.3399-2.09765 22.8829-26.3789 2.9179 19.9375 15.3867 26.58594 15.3867 26.58594s-.3399-2.09375 5.3476-4.12891"/><path d="m191.69898 38.28906h-5.875l.6758-8.57812h5.2734c-.012 3.33203-.035 6.16406-.074 8.57812zm-.6523 11.11328h-6.0938l.7266-9.27344h5.9804c-.1093 4.60547-.3046 7.45313-.6132 9.27344zm-9.6329-11.11328h-5.5742l1.0547-8.57812h5.207zm-.8906 11.11328h-6.04685l1.13675-9.26953h5.6523zm19.8985-9.20312s.7148-.5.7148-1.07422c0 .0859-1.0352-1.86719-3.2617-2.86719-.4844.94922-1.1914 1.49609-1.6485 1.77734 0-1.85937-.01-3.875-.027-6.07812 0-1.92578.9336-2.59766.9336-2.59766s-1.3047-2.21093-4.3086-3.45703c-.7422 1.38281-2.0273 1.9336-2.1055 1.96485h-14.3632c-.5274-.51954-1.4102-1.16016-2.82817-1.59766.52344-.84375.94922-1.63281 1.30857-2.36719v.0469h16.0117c4.5157 0 7.2579.0703 7.2579.0703s.7187-.49219.7187-1.35547c0 0-1.3555-2.03906-4.3672-3.08594-.9336 1.9375-2.3672 2.48047-2.418 2.52735h-16.3789c.7618-1.78516 1.2383-3.12891 2.0938-3.96485 0 0-1.1563-2.28906-5.98048-2.92578 0 0 .32422 9.34375-4.39062 18.23828 2.38672-2.16015 4.08203-4.15234 5.32812-5.9414l-1.47656 10.77734h-.0547c-2.45703 0-4.01562-.57031-4.01562-.57031s.39843 1.83203 1.09375 2.49609c.46093.44531 1.60156.25781 2.69922.0859l-1.96094 14.31641c2.96875.2539 4.67578.0703 5.13672-2.37891l.13672-1.13281h16.36329c-.2227.625-.4805 1.03125-.7852 1.33593-1.6992 1.69532-7.6406.97266-7.6406.97266s-.1914-.0156-.2148.14063c-.027.15625.1601.17578.1601.17578 5.4883.64453 5.336 4.60547 5.336 4.60547 4.7929 0 7.0429-1.42969 8.0351-7.21875 2.8242.0156 4.3594.0586 4.3594.0586s.7187-.55469.7187-1.12891c0 0-1.0507-1.7539-3.2968-2.82031-.418.76953-1.0196 1.33984-1.4883 1.70313.2461-2.33985.3633-5.23438.3984-8.79297 2.7696.0195 4.2071.0625 4.2071.0625zm-35.62895 6.39453c.38282-3.69141 2.54688-16.42969 2.54688-16.42969l-.0352-.0703-.0703.0469s-1.53125 5.26563-4.47656 14.28907c-1.35547 4.16015-2.33985.89062-5.29688 1.66406 0 0 5.25391.28906 3.89453 8.64844-.76172 4.71093 6.28125 4.72656 5.73047.1289-.54687-4.55859-2.66797-4.61719-2.29297-8.27734zm-4.67187-13.87891c.8164 4.27344 5.09375 2.91016 4.32812-1.10547-.77343-4.01562-8.07031-4.51953-8.07031-4.51953s2.92188 1.34766 3.74219 5.625zm3.23047-9.53906c.74218 4.67187 5.5664 3.54297 4.87109-.84375-.69922-4.39063-9.26953-4.99219-9.26953-4.99219s3.65625 1.16797 4.39844 5.83594"/><path d="m337.26928 38.45312c-.9492 2.16016-2.6406 3.15625-2.6914 3.19922l-10.7656.004c-.051-1.8711-.082-2.58594-.012-2.75391.2031-.49219.4297-.80859.4297-.80859s-.211-.21875-.6407-.50391c1.4766-.30078 5.7071-1.32812 8.4922-3.70703.6289-.53906 2.0508-1.03906 2.0508-1.03906s-.082-.21094-.2617-.53906c1.5117-.51563 4.1992-1.5586 6.5742-3.17188.3906-.30469 1.5977-.83203 1.5977-.83203s-1.4375-3.15625-5.5196-4.92969c-.6836 1.25391-1.7969 1.91406-1.7969 1.91406h-9.121c1.9648-.77343 5.3007-2.29687 7.6914-4.54687.7265-.75 1.7148-1.15625 1.7148-1.15625s-1.7852-3.65625-6.5195-4.76563c-.5196 5.32813-3 9.08985-4.0469 10.46875h-18.8555c-.3242-2.19531-.832-3.90625-.832-3.90625s-.1758 5.20704-3.6992 7.83985c-4.3828 3.27734-.7227 7.97656 3.1328 4.57812 1.5469-1.36328 1.793-4.08203 1.6094-6.6289h30.1406c-.4961 1.64453-1.668 3.41015-2.4649 4.48828-.6875-1.02735-1.9531-2.47656-4.0195-3.28906-.6914 1.2539-1.5156 1.59765-1.5898 1.6289h-15.5c-2.5625 0-3.9727-.58594-3.9727-.58594s.2695 1.875.9805 2.55469c.707.67969 2.9531-.0859 4.3008-.0859h14.2422c-1.1172 2.57813-3.6797 4.84375-4.5547 5.56641-.8985-.53906-2.5118-1.21484-4.9883-1.17187 0 0 .5117 2.1914.707 5.38281h-15.9961c-2.7578 0-3.9726-.58594-3.9726-.58594s.2695 1.87109.9804 2.55469c.7071.67969 2.9532-.082 4.3047-.082h14.75c.016 1.10156-.016 2.27734-.1211 3.5-.3164 3.6914-.7539 4.80078-1.1562 5.05859-.9258.59766-8.418-.74219-8.418-.74219s-.1719-.0195-.1992.13672c-.031.15625.1601.19531.1601.19531 5.5235.64844 6.4297 6.63672 6.4297 6.63672 6.7266 0 8.1563-2.78906 8.0899-9.95312-.016-1.98828-.047-3.56641-.074-4.83203h10.2851c4.6172 0 7.4258.0703 7.4258.0703s.7344-.61719.7344-1.38672c0 0-1.5703-2.46484-5.0352-3.77344zm-19.3945-17.19531c.789 4.49219 6.4726 3.375 5.7305-.84375-.7383-4.22266-8.418-5.10937-8.418-5.10937s1.9023 1.45703 2.6875 5.95312zm-8.4805.66406c.7188 4.10547 6.2656 3.08594 5.5899-.76953-.6758-3.85937-8.4375-5.03515-8.4375-5.03515s2.1289 1.69921 2.8476 5.80468"/></g><g fill="#337021"><path d="m63.71851 44.42578c9.86719-6.19922 15.42188-13.32031 15.48047-13.39453 5.60547-6.71485 3.83985-11.79297 3.76172-12.00391-2.09765-7.35937-10.98047-9.35547-11.35937-9.4375l-9.01563-2.11719c-9.94922-2.36718-16-7.17187-16.05859-7.21875l-.28516-.23046-.28515.23046c-.0586.0469-6.10938 4.85157-16.0586 7.21875l-9.02344 2.11719c-.37109.082-9.25 2.07813-11.35937 9.46875-.0703.17969-1.83594 5.25781 3.78125 11.98828.043.0625 5.65625 7.2461 15.61328 13.47266v-1.07813c-9.50781-6.05468-14.84766-12.89453-14.90234-12.96484-3.25-3.89062-3.87891-7.20312-3.87891-9.17969 0-1.22656.24219-1.9414.25-1.96093 1.96875-6.88672 10.60938-8.83985 10.69531-8.85547l9.03516-2.125c8.95312-2.12891 14.82031-6.20313 16.13281-7.17969 1.3125.97656 7.1836 5.05078 16.13281 7.17969l9.03125 2.12109c.0937.0195 8.73047 1.97266 10.69141 8.83203.0117.0274.25781.75391.25781 1.9961 0 1.98437-.63281 5.28515-3.86328 9.16015-.0664.082-5.35547 6.85156-14.77344 12.88672z"/><path d="m45.86305.57422c-.22657.34375-5.54297 8.59765-6.33594 27.42578l.90625.0391c.66015-15.67969 4.57812-24.03516 5.80859-26.30078 1.23047 2.26562 5.14844 10.62109 5.8086 26.30078l.91015-.0391c-.79297-18.82813-6.11328-27.08203-6.33984-27.42578l-.37891-.57422z"/><path d="m46.24195 17.46484-1.57422-1.57812v-5.14844h3.14844v5.14844z"/><path d="m45.93726 25.34765h.60938v-8.84765h-.60938zm0 0"/><path d="m28.90992 63.76172c-11.95703 5.66406-19.84375 6.32422-22.19922 6.38672 1.34375-2.19922 6.35938-9.875 22.19922-19.72266v-1.0625c-18.53125 11.32422-23.21484 20.67187-23.39844 21.03906l-.30859.61328.6875.043c.37891.0195 8.69922.42969 23.01953-6.28906v-1.00781"/><path d="m20.32789 62.28906-.57422 2.15234-4.46094 2.57032-1.57422-2.72657 4.45704-2.57421z"/><path d="m28.90992 56.98437-9.56641 5.51563.30079.53125 9.26562-5.35156z"/><path d="m50.80445 72.78906c-1.91015 12.74219-6.50781 16.81641-6.55078 16.85156-3.30078 3.22657-6.96484 2.85547-7.00391 2.85157l-.0273-.004h-.0273c-5.33594.0703-10.44532-5.40625-10.4961-5.45703l-4.09765-4.25c-9.39844-9.53516-14.80078-11.89453-16.29688-12.40235.0977-.50781.22266-1.47656.22266-3.01171 0-3.14454-.53906-8.62891-3.00391-17.27344l-1.6875-5.65235c-.0156-.0508-.91406-2.88281-.91406-6.125 0-1.92187.31641-3.98828 1.3125-5.70312l.0195-.0273.008-.0234c.0156-.0352 1.49219-3.41016 5.89453-4.6875.082-.0274 6.89454-2.08203 20.75391 3.75781v-.98437c-13.97656-5.8125-20.73437-3.73829-21.02344-3.64454-4.74609 1.37891-6.34765 4.9336-6.45312 5.1875-1.08985 1.89063-1.4336 4.10938-1.4336 6.15235 0 3.32422.90625 6.17969.96875 6.36719l1.67969 5.64062c2.44141 8.55078 2.95703 13.98438 2.95703 17.03906 0 2.17969-.26172 3.14844-.26953 3.17188l-.13281.45703.46484.11328c.0547.0117 5.57032 1.41797 16.28516 12.28125l4.08594 4.23828c.21093.23047 5.41015 5.80469 11.14453 5.74219.33594.0391 4.16797.35547 7.68359-3.08203.17969-.14844 4.90625-4.28516 6.85938-17.52344h-.92188"/><path d="m63.71851 63.74219c11.95704 5.66406 19.84375 6.32812 22.20313 6.38671-1.34766-2.19921-6.36328-9.875-22.20313-19.72265v-1.0625c18.53125 11.32812 23.21485 20.66797 23.39844 21.03906l.3086.61719-.6836.0391c-.38281.0234-8.70312.42969-23.02344-6.28906v-1.00781"/><path d="m72.30055 62.26562.57812 2.15235 4.46094 2.57812 1.57422-2.73828-4.46094-2.57031z"/><path d="m63.71851 56.96094 9.56641 5.52343-.30469.52344-9.26172-5.34766z"/><path d="m41.82008 72.76562c1.91406 12.7461 6.51172 16.81641 6.55859 16.85547 3.29688 3.22656 6.96094 2.85547 7 2.84766l.0273-.004h.0312c5.33204.0742 10.44141-5.40234 10.49219-5.45703l4.09766-4.24609c9.39844-9.53125 14.80469-11.89063 16.29687-12.40235-.0937-.50781-.22265-1.47656-.22265-3.01172 0-3.14062.53906-8.63281 3.00781-17.26953l1.68359-5.65625c.0156-.0508.91407-2.88281.91407-6.1289 0-1.92188-.31641-3.98438-1.31641-5.69922l-.0156-.0274-.008-.0273c-.0156-.0312-1.49219-3.40625-5.89453-4.68359-.082-.0273-6.89453-2.08594-20.75391 3.75781v-.98828c13.97657-5.8086 20.73438-3.73438 21.02344-3.63672 4.7461 1.375 6.34766 4.92969 6.45703 5.18359 1.08594 1.89063 1.42969 4.10547 1.42969 6.14844 0 3.32813-.90625 6.18359-.96875 6.37109l-1.67578 5.63672c-2.44531 8.55078-2.96094 13.98828-2.96094 17.03907 0 2.18359.26563 3.15234.26953 3.17578l.13282.46093-.46485.10938c-.0547.008-5.57031 1.41797-16.28515 12.28125l-4.08594 4.23828c-.21094.23047-5.41016 5.80469-11.14453 5.74609-.33203.0312-4.16797.35157-7.67969-3.08593-.17969-.15235-4.91016-4.28516-6.85938-17.52735h.91407"/><path d="m11.92945 27.5039s7.48438 1.44532 16.98047 6.32422v.83203s-12.63672-6.11328-16.98047-7.15625"/><path d="m11.92945 27.5039 16.98047 9.38672v1.03907s-15.23437-8.94141-16.98047-10.42579"/><path d="m11.92945 27.5039s1.82422 3.00391 16.98047 12.8125v.98438s-12.73828-8.08594-16.98047-13.79688"/><path d="m80.69898 27.5039s-7.47656 1.44532-16.98047 6.32422v.83203s12.63672-6.11328 16.98047-7.15625"/><path d="m80.69898 27.5039-16.98047 9.38672v1.03907s15.23829-8.94141 16.98047-10.42579"/><path d="m80.69898 27.5039s-1.82031 3.00391-16.98047 12.8125v.98438s12.74219-8.08594 16.98047-13.79688"/><path d="m46.24195 87.01953s-1.84375-4.67578-2.76172-14.23047h.78907s.23437 5.33594 1.97265 14.23047"/><path d="m46.59742 72.78906-.35547 14.23047-.35547-14.23047z"/><path d="m46.24195 87.01953s1.56641-4.98047 2.22266-14.23047h.69922s-1.33985 11.53906-2.92188 14.23047"/><path d="m33.14039 36.17187c0 .65625-.53125 1.19141-1.1875 1.19141-.66016 0-1.19141-.53516-1.19141-1.19141v-5.375c0-.66015.53125-1.1875 1.19141-1.1875h12.58594c.33203 0 .59765-.26953.59765-.59765v-.85157c0-.65625.53125-1.1875 1.19141-1.1875.65625 0 1.1875.53125 1.1875 1.1875v.85157c0 .32812.26562.59765.59375.59765h12.58984c.65625 0 1.19141.52735 1.19141 1.1875v5.375c0 .65625-.53516 1.19141-1.19141 1.19141s-1.1875-.53516-1.1875-1.19141v-3.58984c0-.32813-.26562-.59766-.59765-.59766h-4.5586c-.32812 0-.59375.26953-.59375.59766v3.58984c0 .65625-.53515 1.19141-1.1875 1.19141-.66015 0-1.1914-.53516-1.1914-1.19141v-3.58984c0-.32813-.26563-.59766-.59375-.59766h-8.92578c-.32422 0-.59375.26953-.59375.59766v3.58984c0 .65625-.53125 1.19141-1.1875 1.19141-.66016 0-1.19141-.53516-1.19141-1.19141v-3.58984c0-.32813-.26563-.59766-.59375-.59766h-4.55859c-.32813 0-.59766.26953-.59766.59766z"/><path d="m30.76148 66.29297c0 .65625.53125 1.1875 1.19141 1.1875.65625 0 1.1875-.53125 1.1875-1.1875v-11.38672c0-.33203.26953-.59766.59766-.59766h25.17578c.33203 0 .59765.26563.59765.59766v11.38672c0 .65625.53125 1.1875 1.1875 1.1875s1.19141-.53125 1.19141-1.1875v-13.17578c0-.65625-.53516-1.1875-1.19141-1.1875h-28.74609c-.66016 0-1.19141.53125-1.19141 1.1875z"/><path d="m55.10914 48.39453c-.65625 0-1.19141.53125-1.19141 1.1875 0 .66016.53516 1.19141 1.19141 1.19141h5.58984c.65625 0 1.19141-.53125 1.19141-1.19141v-9.73047c0-.65625-.53516-1.19141-1.19141-1.19141s-1.1875.53516-1.1875 1.19141v.3125c0 .32813-.26562.59375-.59765.59375h-3.80469c-.65625 0-1.19141.53516-1.19141 1.19141s.53516 1.1875 1.19141 1.1875h3.65625c.41016 0 .74609.33593.74609.74609s-.33593.74609-.74609.74609h-3.65625c-.65625 0-1.19141.52735-1.19141 1.1875 0 .65625.53516 1.1875 1.19141 1.1875h3.70703c.38281 0 .69531.3125.69531.69532 0 .38281-.3125.69531-.69531.69531z"/><path d="m30.76148 39.85156c0-.65625.53125-1.19141 1.19141-1.19141.65625 0 1.1875.53516 1.1875 1.19141v.3125c0 .33203.26953.59375.59766.59375h3.69531c.65625 0 1.1875.53516 1.1875 1.19141s-.53125 1.1875-1.1875 1.1875h-3.55078c-.41016 0-.74219.33593-.74219.74609s.33203.74609.74219.74609h3.55078c.65625 0 1.1875.52735 1.1875 1.1875 0 .65625-.53125 1.1875-1.1875 1.1875h-3.59766c-.38281 0-.69531.3125-.69531.69532 0 .38281.3125.69531.69531.69531h3.59766c.65625 0 1.1875.53125 1.1875 1.1875 0 .66016-.53125 1.19141-1.1875 1.19141h-5.48047c-.66016 0-1.19141-.53125-1.19141-1.19532z"/><path d="m50.19117 58.87109c0-.32812-.26562-.59765-.59375-.59765h-6.54297c-.32812 0-.59375.26953-.59375.59765v.89063c0 .32812.26563.59375.59375.59375h6.54297c.32813 0 .59375-.26563.59375-.59375zm7.13672 6.83594c0 .66016-.53125 1.1875-1.19141 1.1875h-8.62109v2.87891c0 .65625-.53125 1.18359-1.1875 1.18359h-3.52734c-.65625 0-1.19141-.52734-1.19141-1.18359s.53516-1.19141 1.19141-1.19141h1.73828c.33203 0 .59765-.26563.59765-.59375v-1.09375h-8.625c-.65625 0-1.1875-.52734-1.1875-1.1875v-8.90234c0-.65625.53125-1.1875 1.1875-1.1875s1.19141.53125 1.19141 1.1875v7.12109c0 .32812.26172.59375.59375.59375h6.83984v-1.1875c0-.33203-.26562-.59766-.59765-.59766h-3.26953c-.65625 0-1.1875-.53125-1.1875-1.1914v-4.45703c0-.66016.53125-1.19141 1.1875-1.19141h10.11328c.65625 0 1.1914.53125 1.1914 1.19141v4.45703c0 .66015-.53515 1.1914-1.1914 1.1914h-3.27344c-.32813 0-.59375.26563-.59375.59766v1.1875h6.83984c.32813 0 .59766-.26563.59766-.59375v-7.12109c0-.65625.52734-1.1875 1.18359-1.1875.66016 0 1.19141.53125 1.19141 1.1875z"/><path d="m44.91773 44.38672s-.20312.11328-.20312.30468c0 .19141.20312.30469.20312.30469l.86719.5s.30859.17969.53516.17969c.22265 0 .53515-.17969.53515-.17969l.86719-.5s.20313-.11328.20313-.30469c0-.1914-.20313-.30468-.20313-.30468l-.86719-.5s-.3125-.17969-.53515-.17969c-.22657 0-.53516.17969-.53516.17969zm-2.36718 6.34375c-.57032.32422-1.29688.1289-1.625-.4375-.32813-.57032-.13282-1.30078.4375-1.625l2.05468-1.1836s.19922-.11328.19922-.30468c0-.19532-.19922-.30469-.19922-.30469l-2.00781-1.15625s-.63672-.38281-.63672-1.02735c0-.64843.63672-1.02734.63672-1.02734l2.00781-1.15625s.19922-.10937.19922-.30078-.19922-.30469-.19922-.30469l-2.16015-1.24609c-.57032-.33203-.76172-1.0586-.4375-1.62891.32812-.5664 1.05468-.76172 1.625-.43359l3.33984 1.92969s.30859.17578.53516.17578c.22265 0 .53515-.17578.53515-.17578l3.23047-1.86719c.57031-.33203 1.29688-.13281 1.625.43359.32813.57031.13281 1.29688-.43359 1.625l-2.05469 1.1875s-.20312.11328-.20312.30469.20312.30078.20312.30078l2.01172 1.15625s.63672.37891.63672 1.02734c0 .64454-.63672 1.02735-.63672 1.02735l-2.01172 1.15625s-.20312.10937-.20312.30469c0 .1914.20312.30468.20312.30468l2.02734 1.16407c.56641.32812.76172 1.05859.4336 1.625-.32813.57031-1.05469.76562-1.625.4375l-3.20313-1.85157s-.3125-.17578-.53515-.17578c-.22657 0-.53516.17578-.53516.17578z"/></g></svg>